<svg width="42" height="27" viewBox="0 0 42 27" fill="none" xmlns="http://www.w3.org/2000/svg">
<path d="M9.728 26.72C12.212 26.72 19.304 26.144 19.304 13.4C19.304 0.655998 12.212 0.079999 9.728 0.079999C7.244 0.079999 0.152 0.655998 0.152 13.4C0.152 26.144 7.244 26.72 9.728 26.72ZM9.728 21.428C6.632 21.428 6.56 16.676 6.56 13.4C6.56 10.124 6.632 5.372 9.728 5.372C12.824 5.372 12.896 10.124 12.896 13.4C12.896 16.676 12.824 21.428 9.728 21.428ZM32.2893 26H38.3373V19.952H41.1453V14.66H38.3373V0.799998H30.0213L20.9493 14.768V19.952H32.2893V26ZM32.2893 14.66H26.7093L32.2893 5.84V14.66Z" fill="#969AF7"/>
</svg>
