<svg width="41" height="27" viewBox="0 0 41 27" fill="none" xmlns="http://www.w3.org/2000/svg">
<path d="M9.728 26.72C12.212 26.72 19.304 26.144 19.304 13.4C19.304 0.655998 12.212 0.079999 9.728 0.079999C7.244 0.079999 0.152 0.655998 0.152 13.4C0.152 26.144 7.244 26.72 9.728 26.72ZM9.728 21.428C6.632 21.428 6.56 16.676 6.56 13.4C6.56 10.124 6.632 5.372 9.728 5.372C12.824 5.372 12.896 10.124 12.896 13.4C12.896 16.676 12.824 21.428 9.728 21.428ZM29.9853 0.799998L24.2253 9.188C22.3173 11.96 21.4533 14.408 21.4533 17.576C21.4533 23.12 25.3053 26.72 31.1013 26.72C37.5813 26.72 40.8933 22.436 40.8933 17.576C40.8933 12.752 37.8693 9.296 33.3693 9.296C32.4693 9.296 31.8573 9.44 31.2813 9.62L37.4373 0.799998H29.9853ZM31.0293 21.428C28.7973 21.428 27.5013 19.772 27.5013 17.648C27.5013 15.596 28.7973 13.904 31.0293 13.904C33.3333 13.904 34.5933 15.668 34.5933 17.648C34.5933 19.772 33.1893 21.428 31.0293 21.428Z" fill="#969AF7"/>
</svg>
