<svg width="41" height="27" viewBox="0 0 41 27" fill="none" xmlns="http://www.w3.org/2000/svg">
<path d="M9.728 26.72C12.212 26.72 19.304 26.144 19.304 13.4C19.304 0.655998 12.212 0.079999 9.728 0.079999C7.244 0.079999 0.152 0.655998 0.152 13.4C0.152 26.144 7.244 26.72 9.728 26.72ZM9.728 21.428C6.632 21.428 6.56 16.676 6.56 13.4C6.56 10.124 6.632 5.372 9.728 5.372C12.824 5.372 12.896 10.124 12.896 13.4C12.896 16.676 12.824 21.428 9.728 21.428ZM40.1013 20.456H32.6853C38.3733 14.624 40.3893 12.212 40.3893 8.468C40.3893 4.22 37.5093 0.079999 31.2093 0.079999C23.5413 0.079999 21.7053 6.02 21.5973 9.656H27.8973C27.8973 8.648 28.1133 5.372 31.0293 5.372C33.0093 5.372 34.0893 6.992 34.0893 8.648C34.0893 10.124 33.4053 11.204 31.1373 13.832L20.6973 26H40.1013V20.456Z" fill="#969AF7"/>
</svg>
