<svg width="41" height="27" viewBox="0 0 41 27" fill="none" xmlns="http://www.w3.org/2000/svg">
<path d="M9.728 26.72C12.212 26.72 19.304 26.144 19.304 13.4C19.304 0.655998 12.212 0.079999 9.728 0.079999C7.244 0.079999 0.152 0.655998 0.152 13.4C0.152 26.144 7.244 26.72 9.728 26.72ZM9.728 21.428C6.632 21.428 6.56 16.676 6.56 13.4C6.56 10.124 6.632 5.372 9.728 5.372C12.824 5.372 12.896 10.124 12.896 13.4C12.896 16.676 12.824 21.428 9.728 21.428ZM39.3813 6.344V0.799998H25.7733L23.0013 14.156H24.1893C25.8093 13.4 27.1053 13.076 28.5093 13.076C31.1373 13.076 34.0893 13.904 34.0893 16.964C34.0893 19.952 32.0733 21.428 29.1213 21.428C27.1413 21.428 25.3413 20.96 23.0013 18.44H22.2453L21.7053 24.488C24.0093 25.928 26.4573 26.72 29.5173 26.72C35.3133 26.72 40.3893 23.264 40.3893 17.108C40.3893 12.608 37.4373 9.332 32.3613 9.332C31.2813 9.332 30.3453 9.44 29.4813 9.62L30.0573 6.344H39.3813Z" fill="#969AF7"/>
</svg>
