<svg width="41" height="27" viewBox="0 0 41 27" fill="none" xmlns="http://www.w3.org/2000/svg">
<path d="M9.728 26.72C12.212 26.72 19.304 26.144 19.304 13.4C19.304 0.655998 12.212 0.079999 9.728 0.079999C7.244 0.079999 0.152 0.655998 0.152 13.4C0.152 26.144 7.244 26.72 9.728 26.72ZM9.728 21.428C6.632 21.428 6.56 16.676 6.56 13.4C6.56 10.124 6.632 5.372 9.728 5.372C12.824 5.372 12.896 10.124 12.896 13.4C12.896 16.676 12.824 21.428 9.728 21.428ZM21.4533 17.9C21.5613 19.88 22.4253 26.72 30.7773 26.72C36.6813 26.72 40.3893 23.48 40.3893 18.692C40.3893 14.624 37.9773 12.788 35.8893 12.212V12.104C38.2293 11.528 39.5973 9.548 39.5973 6.956C39.5973 2.06 35.2413 0.079999 31.0293 0.079999C29.0133 0.079999 22.9653 0.368 21.9573 8.036H28.2573C28.1853 6.524 29.4453 5.372 30.9573 5.372C31.8933 5.372 33.4413 5.804 33.4413 8.036C33.4413 10.7 31.1373 10.844 30.5613 10.844H29.7693V15.164H30.5613C31.8573 15.164 34.0893 15.236 34.0893 17.936C34.0893 19.124 33.8013 21.428 30.9213 21.428C28.1853 21.428 27.7173 19.124 27.7533 17.9H21.4533Z" fill="#969AF7"/>
</svg>
