<svg width="37" height="27" viewBox="0 0 37 27" fill="none" xmlns="http://www.w3.org/2000/svg">
<path d="M10.2827 26.72C12.7667 26.72 19.8587 26.144 19.8587 13.4C19.8587 0.655998 12.7667 0.079999 10.2827 0.079999C7.79869 0.079999 0.706688 0.655998 0.706688 13.4C0.706688 26.144 7.79869 26.72 10.2827 26.72ZM10.2827 21.428C7.18669 21.428 7.11469 16.676 7.11469 13.4C7.11469 10.124 7.18669 5.372 10.2827 5.372C13.3787 5.372 13.4507 10.124 13.4507 13.4C13.4507 16.676 13.3787 21.428 10.2827 21.428ZM29.892 26H36.408V0.799998H26.04V6.596H29.892V26Z" fill="#969AF7"/>
</svg>
